<mxfile host="app.diagrams.net" modified="2022-03-17T07:08:45.719Z" agent="5.0 (Windows NT 10.0; Win64; x64) AppleWebKit/537.36 (KHTML, like Gecko) Chrome/96.0.4664.45 Safari/537.36" etag="cxqou6OZa3nOrQArV6vc" version="16.5.6" type="github">
  <diagram id="_NanasBd7DskEwAItulO" name="第 1 页">
    <mxGraphModel dx="2249" dy="-463" grid="1" gridSize="10" guides="1" tooltips="1" connect="1" arrows="1" fold="1" page="1" pageScale="1" pageWidth="827" pageHeight="1169" math="0" shadow="0">
      <root>
        <mxCell id="0" />
        <mxCell id="1" parent="0" />
        <mxCell id="WW9apbDpvwme33v-bASk-1" value="" style="edgeStyle=orthogonalEdgeStyle;rounded=0;orthogonalLoop=1;jettySize=auto;html=1;fontSize=18;" edge="1" parent="1" source="WW9apbDpvwme33v-bASk-2" target="WW9apbDpvwme33v-bASk-13">
          <mxGeometry relative="1" as="geometry" />
        </mxCell>
        <mxCell id="WW9apbDpvwme33v-bASk-2" value="领料单" style="rounded=0;whiteSpace=wrap;html=1;fontSize=18;" vertex="1" parent="1">
          <mxGeometry x="10" y="1380" width="120" height="540" as="geometry" />
        </mxCell>
        <mxCell id="WW9apbDpvwme33v-bASk-3" style="edgeStyle=orthogonalEdgeStyle;rounded=0;orthogonalLoop=1;jettySize=auto;html=1;entryX=0;entryY=0.5;entryDx=0;entryDy=0;fontSize=18;" edge="1" parent="1" source="WW9apbDpvwme33v-bASk-4" target="WW9apbDpvwme33v-bASk-2">
          <mxGeometry relative="1" as="geometry" />
        </mxCell>
        <mxCell id="WW9apbDpvwme33v-bASk-4" value="调拨单" style="rounded=0;whiteSpace=wrap;html=1;fontSize=18;" vertex="1" parent="1">
          <mxGeometry x="-450" y="1360" width="120" height="60" as="geometry" />
        </mxCell>
        <mxCell id="WW9apbDpvwme33v-bASk-5" style="edgeStyle=orthogonalEdgeStyle;rounded=0;orthogonalLoop=1;jettySize=auto;html=1;entryX=0;entryY=0.5;entryDx=0;entryDy=0;fontSize=18;" edge="1" parent="1" source="WW9apbDpvwme33v-bASk-6" target="WW9apbDpvwme33v-bASk-2">
          <mxGeometry relative="1" as="geometry" />
        </mxCell>
        <mxCell id="WW9apbDpvwme33v-bASk-6" value="组装领用" style="rounded=0;whiteSpace=wrap;html=1;fontSize=18;" vertex="1" parent="1">
          <mxGeometry x="-450" y="1520" width="120" height="60" as="geometry" />
        </mxCell>
        <mxCell id="WW9apbDpvwme33v-bASk-7" style="edgeStyle=orthogonalEdgeStyle;rounded=0;orthogonalLoop=1;jettySize=auto;html=1;entryX=0;entryY=0.5;entryDx=0;entryDy=0;fontSize=18;" edge="1" parent="1" source="WW9apbDpvwme33v-bASk-8" target="WW9apbDpvwme33v-bASk-2">
          <mxGeometry relative="1" as="geometry" />
        </mxCell>
        <mxCell id="WW9apbDpvwme33v-bASk-8" value="组装补料" style="rounded=0;whiteSpace=wrap;html=1;fontSize=18;" vertex="1" parent="1">
          <mxGeometry x="-450" y="1620" width="120" height="60" as="geometry" />
        </mxCell>
        <mxCell id="WW9apbDpvwme33v-bASk-9" style="edgeStyle=orthogonalEdgeStyle;rounded=0;orthogonalLoop=1;jettySize=auto;html=1;entryX=0;entryY=0.5;entryDx=0;entryDy=0;fontSize=18;" edge="1" parent="1" source="WW9apbDpvwme33v-bASk-10" target="WW9apbDpvwme33v-bASk-2">
          <mxGeometry relative="1" as="geometry" />
        </mxCell>
        <mxCell id="WW9apbDpvwme33v-bASk-10" value="组装退料" style="rounded=0;whiteSpace=wrap;html=1;fontSize=18;" vertex="1" parent="1">
          <mxGeometry x="-450" y="1740" width="120" height="60" as="geometry" />
        </mxCell>
        <mxCell id="WW9apbDpvwme33v-bASk-11" style="edgeStyle=orthogonalEdgeStyle;rounded=0;orthogonalLoop=1;jettySize=auto;html=1;entryX=0;entryY=0.5;entryDx=0;entryDy=0;fontSize=18;" edge="1" parent="1" target="WW9apbDpvwme33v-bASk-2">
          <mxGeometry relative="1" as="geometry">
            <mxPoint x="-330" y="1920" as="sourcePoint" />
          </mxGeometry>
        </mxCell>
        <mxCell id="WW9apbDpvwme33v-bASk-12" value="" style="edgeStyle=orthogonalEdgeStyle;rounded=0;orthogonalLoop=1;jettySize=auto;html=1;fontSize=18;" edge="1" parent="1" source="WW9apbDpvwme33v-bASk-13" target="WW9apbDpvwme33v-bASk-15">
          <mxGeometry relative="1" as="geometry" />
        </mxCell>
        <mxCell id="WW9apbDpvwme33v-bASk-13" value="从普通货架、冷藏柜领取" style="whiteSpace=wrap;html=1;fontSize=18;rounded=0;" vertex="1" parent="1">
          <mxGeometry x="210" y="1620" width="240" height="60" as="geometry" />
        </mxCell>
        <mxCell id="WW9apbDpvwme33v-bASk-14" style="edgeStyle=orthogonalEdgeStyle;rounded=0;orthogonalLoop=1;jettySize=auto;html=1;entryX=0;entryY=0.5;entryDx=0;entryDy=0;fontSize=18;" edge="1" parent="1" source="WW9apbDpvwme33v-bASk-15" target="WW9apbDpvwme33v-bASk-16">
          <mxGeometry relative="1" as="geometry" />
        </mxCell>
        <mxCell id="WW9apbDpvwme33v-bASk-15" value="放置到对应的位置" style="whiteSpace=wrap;html=1;fontSize=18;rounded=0;" vertex="1" parent="1">
          <mxGeometry x="590" y="1620" width="160" height="60" as="geometry" />
        </mxCell>
        <mxCell id="WW9apbDpvwme33v-bASk-16" value="" style="rounded=0;whiteSpace=wrap;html=1;fontSize=18;" vertex="1" parent="1">
          <mxGeometry x="880" y="1380" width="360" height="540" as="geometry" />
        </mxCell>
        <mxCell id="WW9apbDpvwme33v-bASk-17" value="领用单放置到打包台，出库" style="rounded=0;whiteSpace=wrap;html=1;fontSize=18;" vertex="1" parent="1">
          <mxGeometry x="920" y="1840" width="270" height="60" as="geometry" />
        </mxCell>
        <mxCell id="WW9apbDpvwme33v-bASk-18" value="调拨单放置到打包台，出库" style="rounded=0;whiteSpace=wrap;html=1;fontSize=18;" vertex="1" parent="1">
          <mxGeometry x="930" y="1400" width="250" height="60" as="geometry" />
        </mxCell>
        <mxCell id="WW9apbDpvwme33v-bASk-19" value="组装领用、补料放置到组装区" style="rounded=0;whiteSpace=wrap;html=1;fontSize=18;" vertex="1" parent="1">
          <mxGeometry x="930" y="1510" width="250" height="140" as="geometry" />
        </mxCell>
        <mxCell id="WW9apbDpvwme33v-bASk-20" value="组装退料由组装区回退到货架" style="rounded=0;whiteSpace=wrap;html=1;fontSize=18;" vertex="1" parent="1">
          <mxGeometry x="920" y="1740" width="260" height="60" as="geometry" />
        </mxCell>
        <mxCell id="WW9apbDpvwme33v-bASk-21" value="领用单" style="rounded=0;whiteSpace=wrap;html=1;fontSize=18;" vertex="1" parent="1">
          <mxGeometry x="-450" y="1890" width="120" height="60" as="geometry" />
        </mxCell>
        <mxCell id="WW9apbDpvwme33v-bASk-23" style="edgeStyle=orthogonalEdgeStyle;rounded=0;orthogonalLoop=1;jettySize=auto;html=1;entryX=0;entryY=0.5;entryDx=0;entryDy=0;" edge="1" parent="1" source="WW9apbDpvwme33v-bASk-22" target="WW9apbDpvwme33v-bASk-2">
          <mxGeometry relative="1" as="geometry" />
        </mxCell>
        <mxCell id="WW9apbDpvwme33v-bASk-22" value="拆卸处理" style="rounded=0;whiteSpace=wrap;html=1;" vertex="1" parent="1">
          <mxGeometry x="-450" y="1440" width="120" height="60" as="geometry" />
        </mxCell>
      </root>
    </mxGraphModel>
  </diagram>
</mxfile>
